<svg width="94" height="60" viewBox="0 0 94 60" fill="none" xmlns="http://www.w3.org/2000/svg">
<path d="M26.6479 46.7934C27.5184 46.7934 28.1666 46.0966 28.1666 45.2491V13.2883C28.1666 12.4219 27.4998 11.7439 26.6479 11.7439C25.796 11.7439 25.1293 12.4219 25.1293 13.2883V45.2491C25.1293 46.0966 25.796 46.7934 26.6479 46.7934ZM38.0376 43.0455C38.908 43.0455 39.5562 42.3675 39.5562 41.5012V17.0362C39.5562 16.1698 38.8895 15.4918 38.0376 15.4918C37.1672 15.4918 36.519 16.1698 36.519 17.0362V41.5012C36.519 42.3675 37.1672 43.0455 38.0376 43.0455ZM20.9438 40.3523C21.8143 40.3523 22.481 39.6743 22.481 38.8079V19.7294C22.481 18.863 21.8143 18.185 20.9438 18.185C20.0919 18.185 19.4437 18.863 19.4437 19.7294V38.8079C19.4437 39.6743 20.0919 40.3523 20.9438 40.3523ZM32.352 37.9792C33.2039 37.9792 33.8521 37.2824 33.8521 36.4349V22.1024C33.8521 21.2361 33.2039 20.5581 32.352 20.5581C31.4816 20.5581 30.8334 21.2549 30.8334 22.1024V36.4349C30.8334 37.2824 31.4816 37.9792 32.352 37.9792ZM43.7232 34.7775C44.5936 34.7775 45.2418 34.0995 45.2418 33.2332V25.3042C45.2418 24.4378 44.5936 23.7598 43.7232 23.7598C42.8528 23.7598 42.2046 24.4378 42.2046 25.3042V33.2332C42.2046 34.0995 42.8713 34.7775 43.7232 34.7775ZM15.2582 33.2897C16.1287 33.2897 16.7769 32.6116 16.7769 31.7453V26.792C16.7769 25.9257 16.1102 25.2288 15.2582 25.2288C14.3878 25.2288 13.7396 25.9257 13.7396 26.792V31.7453C13.7396 32.6116 14.3878 33.2897 15.2582 33.2897Z" fill="url(#paint0_linear_108_24)" fill-opacity="0.8"/>
<path d="M26.6479 46.7934C27.5184 46.7934 28.1666 46.0966 28.1666 45.2491V13.2883C28.1666 12.4219 27.4998 11.7439 26.6479 11.7439C25.796 11.7439 25.1293 12.4219 25.1293 13.2883V45.2491C25.1293 46.0966 25.796 46.7934 26.6479 46.7934ZM38.0376 43.0455C38.908 43.0455 39.5562 42.3675 39.5562 41.5012V17.0362C39.5562 16.1698 38.8895 15.4918 38.0376 15.4918C37.1672 15.4918 36.519 16.1698 36.519 17.0362V41.5012C36.519 42.3675 37.1672 43.0455 38.0376 43.0455ZM20.9438 40.3523C21.8143 40.3523 22.481 39.6743 22.481 38.8079V19.7294C22.481 18.863 21.8143 18.185 20.9438 18.185C20.0919 18.185 19.4437 18.863 19.4437 19.7294V38.8079C19.4437 39.6743 20.0919 40.3523 20.9438 40.3523ZM32.352 37.9792C33.2039 37.9792 33.8521 37.2824 33.8521 36.4349V22.1024C33.8521 21.2361 33.2039 20.5581 32.352 20.5581C31.4816 20.5581 30.8334 21.2549 30.8334 22.1024V36.4349C30.8334 37.2824 31.4816 37.9792 32.352 37.9792ZM43.7232 34.7775C44.5936 34.7775 45.2418 34.0995 45.2418 33.2332V25.3042C45.2418 24.4378 44.5936 23.7598 43.7232 23.7598C42.8528 23.7598 42.2046 24.4378 42.2046 25.3042V33.2332C42.2046 34.0995 42.8713 34.7775 43.7232 34.7775ZM15.2582 33.2897C16.1287 33.2897 16.7769 32.6116 16.7769 31.7453V26.792C16.7769 25.9257 16.1102 25.2288 15.2582 25.2288C14.3878 25.2288 13.7396 25.9257 13.7396 26.792V31.7453C13.7396 32.6116 14.3878 33.2897 15.2582 33.2897Z" fill="url(#paint1_linear_108_24)"/>
<path d="M61.6479 46.7934C62.5184 46.7934 63.1666 46.0966 63.1666 45.2491V13.2883C63.1666 12.4219 62.4998 11.7439 61.6479 11.7439C60.796 11.7439 60.1293 12.4219 60.1293 13.2883V45.2491C60.1293 46.0966 60.796 46.7934 61.6479 46.7934ZM73.0376 43.0455C73.908 43.0455 74.5562 42.3675 74.5562 41.5012V17.0362C74.5562 16.1698 73.8895 15.4918 73.0376 15.4918C72.1672 15.4918 71.519 16.1698 71.519 17.0362V41.5012C71.519 42.3675 72.1672 43.0455 73.0376 43.0455ZM55.9438 40.3523C56.8143 40.3523 57.481 39.6743 57.481 38.8079V19.7294C57.481 18.863 56.8143 18.185 55.9438 18.185C55.0919 18.185 54.4437 18.863 54.4437 19.7294V38.8079C54.4437 39.6743 55.0919 40.3523 55.9438 40.3523ZM67.352 37.9792C68.2039 37.9792 68.8521 37.2824 68.8521 36.4349V22.1024C68.8521 21.2361 68.2039 20.5581 67.352 20.5581C66.4816 20.5581 65.8334 21.2549 65.8334 22.1024V36.4349C65.8334 37.2824 66.4816 37.9792 67.352 37.9792ZM78.7232 34.7775C79.5936 34.7775 80.2418 34.0995 80.2418 33.2332V25.3042C80.2418 24.4378 79.5936 23.7598 78.7232 23.7598C77.8528 23.7598 77.2046 24.4378 77.2046 25.3042V33.2332C77.2046 34.0995 77.8713 34.7775 78.7232 34.7775ZM50.2582 33.2897C51.1287 33.2897 51.7769 32.6116 51.7769 31.7453V26.792C51.7769 25.9257 51.1102 25.2288 50.2582 25.2288C49.3878 25.2288 48.7396 25.9257 48.7396 26.792V31.7453C48.7396 32.6116 49.3878 33.2897 50.2582 33.2897Z" fill="url(#paint2_linear_108_24)" fill-opacity="0.8"/>
<path d="M61.6479 46.7934C62.5184 46.7934 63.1666 46.0966 63.1666 45.2491V13.2883C63.1666 12.4219 62.4998 11.7439 61.6479 11.7439C60.796 11.7439 60.1293 12.4219 60.1293 13.2883V45.2491C60.1293 46.0966 60.796 46.7934 61.6479 46.7934ZM73.0376 43.0455C73.908 43.0455 74.5562 42.3675 74.5562 41.5012V17.0362C74.5562 16.1698 73.8895 15.4918 73.0376 15.4918C72.1672 15.4918 71.519 16.1698 71.519 17.0362V41.5012C71.519 42.3675 72.1672 43.0455 73.0376 43.0455ZM55.9438 40.3523C56.8143 40.3523 57.481 39.6743 57.481 38.8079V19.7294C57.481 18.863 56.8143 18.185 55.9438 18.185C55.0919 18.185 54.4437 18.863 54.4437 19.7294V38.8079C54.4437 39.6743 55.0919 40.3523 55.9438 40.3523ZM67.352 37.9792C68.2039 37.9792 68.8521 37.2824 68.8521 36.4349V22.1024C68.8521 21.2361 68.2039 20.5581 67.352 20.5581C66.4816 20.5581 65.8334 21.2549 65.8334 22.1024V36.4349C65.8334 37.2824 66.4816 37.9792 67.352 37.9792ZM78.7232 34.7775C79.5936 34.7775 80.2418 34.0995 80.2418 33.2332V25.3042C80.2418 24.4378 79.5936 23.7598 78.7232 23.7598C77.8528 23.7598 77.2046 24.4378 77.2046 25.3042V33.2332C77.2046 34.0995 77.8713 34.7775 78.7232 34.7775ZM50.2582 33.2897C51.1287 33.2897 51.7769 32.6116 51.7769 31.7453V26.792C51.7769 25.9257 51.1102 25.2288 50.2582 25.2288C49.3878 25.2288 48.7396 25.9257 48.7396 26.792V31.7453C48.7396 32.6116 49.3878 33.2897 50.2582 33.2897Z" fill="url(#paint3_linear_108_24)"/>
<defs>
<linearGradient id="paint0_linear_108_24" x1="13.4091" y1="8.18185" x2="61.7476" y2="24.6009" gradientUnits="userSpaceOnUse">
<stop stop-color="#FFFAFA"/>
<stop offset="1" stop-color="#FFFAFA" stop-opacity="0.4"/>
</linearGradient>
<linearGradient id="paint1_linear_108_24" x1="19.4173" y1="37.4907" x2="49.9644" y2="47.882" gradientUnits="userSpaceOnUse">
<stop stop-color="#FF6161"/>
<stop offset="1" stop-color="#F52828"/>
</linearGradient>
<linearGradient id="paint2_linear_108_24" x1="48.4091" y1="8.18185" x2="96.7476" y2="24.6009" gradientUnits="userSpaceOnUse">
<stop stop-color="#FFFAFA"/>
<stop offset="1" stop-color="#FFFAFA" stop-opacity="0.4"/>
</linearGradient>
<linearGradient id="paint3_linear_108_24" x1="54.4173" y1="37.4907" x2="84.9644" y2="47.882" gradientUnits="userSpaceOnUse">
<stop stop-color="#FF6161"/>
<stop offset="1" stop-color="#F52828"/>
</linearGradient>
</defs>
</svg>
